<svg width="128" height="128" viewBox="0 0 128 128" xmlns="http://www.w3.org/2000/svg"><defs><style/></defs><path d="M120.889 32H7.11a3.556 3.556 0 0 1 0-7.111H120.89a3.556 3.556 0 1 1 0 7.111zm-32-17.778a7.111 7.111 0 0 0-7.111-7.11H46.222a7.111 7.111 0 0 0-7.11 7.11V24.89H32V14.222A14.222 14.222 0 0 1 46.222 0h35.556A14.222 14.222 0 0 1 96 14.222V24.89h-7.111zm-42.667 88.89V60.444a3.556 3.556 0 1 1 7.111 0v42.666a3.556 3.556 0 1 1-7.11 0zm32 0V60.444a3.556 3.556 0 1 1 7.111 0v42.666a3.556 3.556 0 1 1-7.11 0zM24.89 113.777a7.111 7.111 0 0 0 7.111 7.11h67.555a7.111 7.111 0 0 0 7.112-7.11V46.222h7.11v67.556A14.222 14.222 0 0 1 99.556 128H32a14.222 14.222 0 0 1-14.222-14.222V46.222h7.11z" fill="#34475e"/></svg>