<svg width="88px" height="105px" viewBox="0 0 88 105" version="1.1" xmlns="http://www.w3.org/2000/svg">
  <path d="M32.5576172,39.8242188 C55.6298828,30.5488281 71.8309859,0 71.8309859,0 C71.8309859,0 67.3007812,35.4770393 54.2548828,57.8876953 C41.2089844,80.2983513 22.4382068,95.7277041 22.4382068,95.7277041 L0,41.2817271 C0,41.2817271 9.48535156,49.0996094 32.5576172,39.8242188 Z" fill="#F36177"></path>
  <path d="M18,53.3291016 C18,53.3291016 27.053711,55.1977539 46.690918,44.8686523 C66.328125,34.5395508 84.4380928,6 84.4380928,6 C84.4380928,6 79.3630773,42.5225776 66.8251953,64.0605469 C54.2873134,85.5985162 36.9687032,98 36.9687032,98 L18,53.3291016 L18,53.3291016 Z" fill="#48C5CE"></path>
</svg>
